<svg xmlns="http://www.w3.org/2000/svg" data-name="Layer 1" viewBox="0 0 128 128" fill="#fff"><path d="M64,64A32,32,0,1,0,32,32,32.03627,32.03627,0,0,0,64,64ZM64,4A28.00841,28.00841,0,0,1,90.66,23.43372l-5.43286,2.71637A9.9981,9.9981,0,0,0,66.46118,27H61.53882a9.9981,9.9981,0,0,0-18.76593-.84991L37.34,23.43372A28.00847,28.00847,0,0,1,64,4ZM36.37805,27.42535l5.63422,2.81714A9.99476,9.99476,0,0,0,61.94934,31h4.10132a9.99476,9.99476,0,0,0,19.93707-.75751l5.63422-2.81714a28,28,0,1,1-55.2439,0Z"/><path d="M64 54.98975A9.17712 9.17712 0 0 0 70.38965 52.439a2.00044 2.00044 0 0 0-2.7793-2.87793 5.24027 5.24027 0 0 1-7.2207 0 2.00044 2.00044 0 0 0-2.7793 2.87793A9.17712 9.17712 0 0 0 64 54.98975zM59.68939 96.54614L62.044 77.48584a3.97762 3.97762 0 0 0 3.912 0l2.35394 19.05481a40.18423 40.18423 0 0 1 3.85791-1.40326l-2.4483-19.81915.27936-.16119a3.99988 3.99988 0 0 0 1.87238-4.47125l-.87708-3.37335a35.89093 35.89093 0 0 1-3.98932.55249L68 71.69232 64 74l-4-2.30768.99512-3.82739a35.89093 35.89093 0 0 1-3.98932-.55249l-.87708 3.37335A4 4 0 0 0 58.0011 75.157l.27936.16119L55.80695 95.34131A22.98673 22.98673 0 0 1 59.68939 96.54614zM126.23309 120.31421L96.98584 100.634a3.99979 3.99979 0 0 0-1.969-.67261c-1.71149-.11328-3.76147-.46741-5.93182-.84235A57.81742 57.81742 0 0 0 79.4389 98a18.33309 18.33309 0 0 0-5.04315.62848 33.70894 33.70894 0 0 0-10.39557 4.85107 32.16983 32.16983 0 0 0-5.44031-3.07739 24.29145 24.29145 0 0 0-9.94281-1.77533 88.449 88.449 0 0 0-10.11176.78c-1.96783.228-3.82654.44348-5.51959.55438a3.99984 3.99984 0 0 0-1.9715.67279L1.767 120.31421A4 4 0 0 0 0 123.63281V124a4 4 0 0 0 5.57422 3.67719c.17114-.073 17.5083-7.38977 34.22046-7.38934 9.31079.00024 16.559 2.25366 21.54333 6.69775a4 4 0 0 0 5.324 0c4.98511-4.44476 12.23328-6.69824 21.543-6.69775 16.763.00092 34.04852 7.31561 34.22113 7.38953A4 4 0 0 0 128 124v-.36719A3.99993 3.99993 0 0 0 126.23309 120.31421zM124 124s-18.018-7.71118-35.79474-7.71216C79.31525 116.28735 70.488 118.21515 64 124c-6.48688-5.78375-15.31689-7.71191-24.20526-7.71216C22.01648 116.28735 4 124 4 124v-.36719L33.24731 103.9527c4.64886-.30463 10.24176-1.32587 15.36975-1.32587a20.62424 20.62424 0 0 1 8.31384 1.42865A27.06954 27.06954 0 0 1 64 108.579a28.60322 28.60322 0 0 1 11.48724-6.10229A14.56466 14.56466 0 0 1 79.4386 102c4.94043-.00012 10.82635 1.65576 15.31415 1.9527L124 123.63281z"/><path d="M28.784 97.31287A8.01135 8.01135 0 0 1 32.723 95.97c1.59454-.10486 3.40594-.31464 5.32343-.53674a91.48517 91.48517 0 0 1 10.5708-.80634c1.13 0 2.1947.059 3.22968.14624l2.19537-17.77136a8.00308 8.00308 0 0 1-1.78461-7.32233l.87549-3.36725A36.034 36.034 0 0 1 40.22626 59H36A24.18318 24.18318 0 0 0 12 83.30811v25.29858h.00006zM87.77 59a35.94181 35.94181 0 0 1-12.9 7.31l.87 3.37A7.97355 7.97355 0 0 1 73.96 77l2.13 17.23A23.60914 23.60914 0 0 1 79.44 94a60.61149 60.61149 0 0 1 10.32 1.18c2.07.35 4.02.69 5.52.79A7.98584 7.98584 0 0 1 99.22 97.32L116 108.61V83.31A24.18272 24.18272 0 0 0 92 59zM94 82a2.00587 2.00587 0 0 1 2 2v2h10a2 2 0 0 1 0 4H90a2 2 0 0 1 0-4h2V84A2.00587 2.00587 0 0 1 94 82z"/></svg>